<?xml version="1.0" standalone="no"?><!DOCTYPE svg PUBLIC "-//W3C//DTD SVG 1.1//EN" "http://www.w3.org/Graphics/SVG/1.1/DTD/svg11.dtd"><svg t="1591082158652" class="icon" viewBox="0 0 1024 1024" version="1.1" xmlns="http://www.w3.org/2000/svg" p-id="3255" xmlns:xlink="http://www.w3.org/1999/xlink" width="200" height="200"><defs><style type="text/css"></style></defs><path d="M512 1024C229.171 1024 0 794.829 0 512S229.171 0 512 0s512 229.171 512 512-229.171 512-512 512z m0-975.228C256.82 48.772 48.772 256.819 48.772 512S256.819 975.228 512 975.228c255.18 0 463.228-208.047 463.228-463.228S767.181 48.772 512 48.772z" p-id="3256" fill="#000000"></path><path d="M549.39 512l198.306-198.305c9.742-9.743 9.742-26.01 0-37.39l-1.639-1.61a25.512 25.512 0 0 0-35.752 0L512 474.61 313.695 276.304a25.512 25.512 0 0 0-35.752 0l-1.639 1.639c-9.742 9.742-9.742 26.01 0 37.39L474.61 512 276.304 710.305c-9.742 9.743-9.742 26.01 0 37.39l1.639 1.639a25.512 25.512 0 0 0 35.752 0L512 549.42l198.305 198.305a25.512 25.512 0 0 0 35.752 0l1.639-1.639c9.742-9.742 9.742-26.01 0-37.39L549.39 512z" p-id="3257" fill="#000000"></path></svg>