<?xml version="1.0" standalone="no"?><!DOCTYPE svg PUBLIC "-//W3C//DTD SVG 1.1//EN" "http://www.w3.org/Graphics/SVG/1.1/DTD/svg11.dtd"><svg class="icon" width="200px" height="191.04px" viewBox="0 0 1072 1024" version="1.1" xmlns="http://www.w3.org/2000/svg"><path fill="#d81e06" d="M365.648478 805.371361a97.493262 97.493262 0 1 1 0 194.986523 97.493262 97.493262 0 0 1 0-194.986523z m560.537508 0a97.493262 97.493262 0 1 1 0 194.986523 97.493262 97.493262 0 0 1 0-194.986523zM32.12403 0.759473l4.19221 1.218665 176.21907 68.245283a73.119946 73.119946 0 0 1 44.944394 52.158895l1.218666 7.214502 11.016738 90.814973H1006.13046c28.955499 0 49.91655 21.838491 46.699272 48.746631l-51.768922 438.719677c-3.217278 26.90814-25.738221 48.746631-50.306523 48.746631H326.894906c-24.617049 0-47.137992-21.838491-50.306523-48.746631l-51.817668-438.719677a44.359434 44.359434 0 0 1 0.243733-12.235405l-14.721483-121.427857a24.373315 24.373315 0 0 0-11.406711-17.841267L194.986523 115.704028 18.718706 47.458745A24.373315 24.373315 0 0 1 32.12403 0.710726z m335.766793 396.407601h-4.387197a24.373315 24.373315 0 0 0-22.13097 26.469421l17.06132 190.501833 0.7312 4.33845a24.373315 24.373315 0 0 0 47.771698-8.6769L389.973047 419.298045l-0.779947-4.33845a24.373315 24.373315 0 0 0-25.640727-17.792521z" /></svg>