<?xml version="1.0" standalone="no"?><!DOCTYPE svg PUBLIC "-//W3C//DTD SVG 1.1//EN" "http://www.w3.org/Graphics/SVG/1.1/DTD/svg11.dtd"><svg class="icon" width="200px" height="200.00px" viewBox="0 0 1024 1024" version="1.1" xmlns="http://www.w3.org/2000/svg"><path fill="#d81e06" d="M414.47619 560.761905a48.761905 48.761905 0 0 1 48.761905 48.761905v341.333333a48.761905 48.761905 0 0 1-48.761905 48.761905H73.142857a48.761905 48.761905 0 0 1-48.761905-48.761905v-341.333333a48.761905 48.761905 0 0 1 48.761905-48.761905h341.333333z m536.380953 0a48.761905 48.761905 0 0 1 48.761905 48.761905v341.333333a48.761905 48.761905 0 0 1-48.761905 48.761905h-341.333333a48.761905 48.761905 0 0 1-48.761905-48.761905v-341.333333a48.761905 48.761905 0 0 1 48.761905-48.761905h341.333333zM414.47619 24.380952a48.761905 48.761905 0 0 1 48.761905 48.761905v341.333333a48.761905 48.761905 0 0 1-48.761905 48.761905H73.142857a48.761905 48.761905 0 0 1-48.761905-48.761905v-341.333333a48.761905 48.761905 0 0 1 48.761905-48.761905h341.333333z m536.380953 0a48.761905 48.761905 0 0 1 48.761905 48.761905v341.333333a48.761905 48.761905 0 0 1-48.761905 48.761905h-341.333333a48.761905 48.761905 0 0 1-48.761905-48.761905v-341.333333a48.761905 48.761905 0 0 1 48.761905-48.761905h341.333333z" /></svg>