<?xml version="1.0" standalone="no"?><!DOCTYPE svg PUBLIC "-//W3C//DTD SVG 1.1//EN" "http://www.w3.org/Graphics/SVG/1.1/DTD/svg11.dtd"><svg class="icon" width="200px" height="200.00px" viewBox="0 0 1024 1024" version="1.1" xmlns="http://www.w3.org/2000/svg"><path fill="#000000" d="M414.47619 536.380952a73.142857 73.142857 0 0 1 73.142858 73.142858v341.333333A73.142857 73.142857 0 0 1 414.47619 1024h-341.333333A73.142857 73.142857 0 0 1 0 950.857143v-341.333333A73.142857 73.142857 0 0 1 73.142857 536.380952z m536.380953 0a73.142857 73.142857 0 0 1 73.142857 73.142858v341.333333a73.142857 73.142857 0 0 1-73.142857 73.142857h-341.333333a73.142857 73.142857 0 0 1-73.142858-73.142857v-341.333333a73.142857 73.142857 0 0 1 73.142858-73.142858z m-536.380953 48.761905h-341.333333a24.380952 24.380952 0 0 0-24.380952 24.380953v341.333333a24.380952 24.380952 0 0 0 24.380952 24.380952h341.333333a24.380952 24.380952 0 0 0 24.380953-24.380952v-341.333333a24.380952 24.380952 0 0 0-24.380953-24.380953z m536.380953 0h-341.333333a24.380952 24.380952 0 0 0-24.380953 24.380953v341.333333a24.380952 24.380952 0 0 0 24.380953 24.380952h341.333333a24.380952 24.380952 0 0 0 24.380952-24.380952v-341.333333a24.380952 24.380952 0 0 0-24.380952-24.380953zM414.47619 0A73.142857 73.142857 0 0 1 487.619048 73.142857v341.333333A73.142857 73.142857 0 0 1 414.47619 487.619048h-341.333333A73.142857 73.142857 0 0 1 0 414.47619v-341.333333A73.142857 73.142857 0 0 1 73.142857 0z m536.380953 0A73.142857 73.142857 0 0 1 1024 73.142857v341.333333a73.142857 73.142857 0 0 1-73.142857 73.142858h-341.333333A73.142857 73.142857 0 0 1 536.380952 414.47619v-341.333333A73.142857 73.142857 0 0 1 609.52381 0z m-536.380953 48.761905h-341.333333a24.380952 24.380952 0 0 0-24.380952 24.380952v341.333333a24.380952 24.380952 0 0 0 24.380952 24.380953h341.333333a24.380952 24.380952 0 0 0 24.380953-24.380953v-341.333333a24.380952 24.380952 0 0 0-24.380953-24.380952z m536.380953 0h-341.333333a24.380952 24.380952 0 0 0-24.380953 24.380952v341.333333a24.380952 24.380952 0 0 0 24.380953 24.380953h341.333333a24.380952 24.380952 0 0 0 24.380952-24.380953v-341.333333a24.380952 24.380952 0 0 0-24.380952-24.380952z" /></svg>