<?xml version="1.0" standalone="no"?><!DOCTYPE svg PUBLIC "-//W3C//DTD SVG 1.1//EN" "http://www.w3.org/Graphics/SVG/1.1/DTD/svg11.dtd"><svg class="icon" width="200px" height="200.00px" viewBox="0 0 1024 1024" version="1.1" xmlns="http://www.w3.org/2000/svg"><path fill="#d81e06" d="M560.030476 44.373333a77.190095 77.190095 0 0 0-103.716571 0L36.912762 442.709333a38.66819 38.66819 0 0 0 51.785143 57.490286l6.680381-6.339048v415.646477a77.385143 77.385143 0 0 0 77.287619 77.531428h225.28v-232.984381a54.467048 54.467048 0 0 1 54.515809-54.613333h105.959619a54.467048 54.467048 0 0 1 54.51581 54.613333v232.935619h230.546286a77.385143 77.385143 0 0 0 77.385142-77.482666v-410.575238c17.212952 15.555048 41.593905 14.384762 55.881143-1.560381a38.66819 38.66819 0 0 0-2.779428-54.613334L560.030476 44.373333z" /></svg>