<?xml version="1.0" standalone="no"?><!DOCTYPE svg PUBLIC "-//W3C//DTD SVG 1.1//EN" "http://www.w3.org/Graphics/SVG/1.1/DTD/svg11.dtd"><svg class="icon" width="200px" height="200.00px" viewBox="0 0 1024 1024" version="1.1" xmlns="http://www.w3.org/2000/svg"><path fill="#000000" d="M439.978667 26.331429L20.138667 425.008762a63.000381 63.000381 0 0 0-3.462096 88.84419l4.876191 4.729905c13.409524 11.849143 30.866286 17.066667 47.835428 15.311238l1.657905-0.195047v375.759238a101.766095 101.766095 0 0 0 101.61981 101.912381h249.660952v-257.414096c0-16.62781 13.458286-30.134857 30.086095-30.134857h106.057143c16.62781 0 30.134857 13.458286 30.134857 30.086096v257.462857h254.927238l7.265524-0.292572a101.766095 101.766095 0 0 0 94.500572-101.473524v-375.417904l1.462857 0.097523c14.969905 0.487619 29.891048-4.388571 42.032762-14.677333l5.022476-4.827428c22.089143-24.380952 22.77181-59.489524 2.974476-83.480381l-5.168762-5.461334L584.655238 34.133333l-0.048762-0.487619-8.094476-7.314285a101.571048 101.571048 0 0 0-136.533333 0z m103.18019 35.644952l413.988572 398.287238 3.218285 3.413333c3.267048 4.047238 3.120762 12.04419-1.657904 17.310477l-2.681905 2.535619c-4.144762 3.413333-12.190476 3.169524-18.773334-2.730667l-40.71619-36.864v465.67619l-0.292571 5.753905c-2.925714 26.575238-25.404952 47.201524-52.71162 47.201524l-206.116571 0.048762-0.048762-208.700952c0-43.593143-35.352381-78.896762-78.896762-78.848H452.412952l-7.216762 0.292571a78.896762 78.896762 0 0 0-71.582476 78.652952v208.603429h-200.899047c-29.257143-0.097524-52.955429-23.844571-52.906667-53.150476V437.101714l-47.835429 45.397334c-5.217524 4.583619-14.140952 4.144762-19.407238-1.609143a14.384762 14.384762 0 0 1 1.170286-20.48l419.401143-398.287238a52.662857 52.662857 0 0 1 65.731048-3.510857l4.291047 3.413333z" /></svg>