<?xml version="1.0" standalone="no"?><!DOCTYPE svg PUBLIC "-//W3C//DTD SVG 1.1//EN" "http://www.w3.org/Graphics/SVG/1.1/DTD/svg11.dtd"><svg class="icon" width="200px" height="200.00px" viewBox="0 0 1024 1024" version="1.1" xmlns="http://www.w3.org/2000/svg"><path fill="#000000" d="M512 561.054476c268.726857 0 487.619048 194.56 487.619048 436.126476v24.380953H24.380952v-24.380953c0-241.566476 218.940952-436.126476 487.619048-436.126476z m0 48.761905c-229.668571 0-417.304381 155.648-437.101714 352.841143l-0.877715 10.142476h876.007619l-0.877714-10.142476c-19.407238-193.438476-200.265143-346.843429-423.936-352.694857zM512 0a256 256 0 1 1 0 512A256 256 0 0 1 512 0z m0 48.761905a207.238095 207.238095 0 1 0 0 414.47619A207.238095 207.238095 0 0 0 512 48.761905z" /></svg>