<?xml version="1.0" standalone="no"?><!DOCTYPE svg PUBLIC "-//W3C//DTD SVG 1.1//EN" "http://www.w3.org/Graphics/SVG/1.1/DTD/svg11.dtd"><svg t="1591177353455" class="icon" viewBox="0 0 1024 1024" version="1.1" xmlns="http://www.w3.org/2000/svg" p-id="1031" xmlns:xlink="http://www.w3.org/1999/xlink" width="200" height="200"><defs><style type="text/css"></style></defs><path d="M363.074 574.282v-18.758l86.804-99.651c-9.844 0.511-18.544 0.781-26.073 0.781h-55.604v-18.758h111.477v15.285l-73.836 86.548-14.249 15.798c10.356-0.768 20.078-1.145 29.155-1.145h63.050v19.903h-120.727z" p-id="1032" fill="#8a8a8a"></path><path d="M563.901 449.285v-21.115l97.765-112.23c-11.084 0.579-20.874 0.875-29.357 0.875h-62.631v-21.115h125.536v17.225l-83.155 97.471-16.053 17.789c11.663-0.861 22.61-1.294 32.831-1.294h71.009v22.409h-135.943z" p-id="1033" fill="#8a8a8a"></path><path d="M792.089 339.36v-31.552l146.058-167.67c-16.565 0.861-31.188 1.307-43.86 1.307h-93.565v-31.552h187.548v25.722l-124.241 145.628-23.969 26.571c17.425-1.294 33.774-1.925 49.045-1.925h106.075v33.477h-203.088z" p-id="1034" fill="#8a8a8a"></path><path d="M776.4 722.13c9.735 0 18.909-4.794 24.428-12.887l163.941-239.071c6.222-9.076 6.919-20.886 1.805-30.622-5.145-9.749-15.729-19.714-26.582-17.937-6.167 1.011-15.769 9.426-20.482 13.911-10.22 9.735-35.511 47.536-35.511 47.536l-123.232 179.71h-502.515v-358.894c0-14.221-10.060-26.433-23.998-29.115l-177.934-34.462c-16.199-3.287-31.674 7.393-34.757 23.471-3.137 16.107 7.378 31.674 23.445 34.783l153.935 29.813v120.337c0 0.795 0.039 1.563 0.108 2.343-0.067 0.768-0.108 1.549-0.108 2.343v239.071c0 16.402 13.264 29.667 29.667 29.667h5.549l-0.202 84.313c-23.634 17.614-39.052 46.19-39.052 78.403 0 53.436 42.311 96.905 94.347 96.905 51.995 0 94.347-43.483 94.347-96.905 0-13.278-2.626-25.949-7.366-37.491h243.782c-4.74 11.539-7.354 24.198-7.354 37.491 0 53.436 42.311 96.905 94.347 96.905 52.034 0 94.373-43.483 94.373-96.905 0-53.395-42.352-96.836-94.373-96.836-0.727 0-1.44 0.039-2.169 0.054-0.579-0.039-1.171-0.054-1.764-0.054h-409.785l0.175-65.879h482.934zM707.009 847.357c19.338 0 35.082 16.805 35.082 37.491 0 20.713-15.729 37.543-35.082 37.543-19.31 0-35.041-16.834-35.041-37.543-0.015-20.672 15.729-37.491 35.041-37.491zM324.29 884.846c0 20.713-15.729 37.543-35.041 37.543s-35.054-16.834-35.054-37.543c0-20.672 15.729-37.491 35.054-37.491 19.31 0 35.041 16.818 35.041 37.491z" p-id="1035" fill="#8a8a8a"></path></svg>